<svg xmlns="http://www.w3.org/2000/svg" viewBox="0 0 520 100" fill="none">
  <defs>
    <filter id="glow" x="-50%" y="-50%" width="200%" height="200%">
      <feGaussianBlur in="SourceGraphic" stdDeviation="4" result="blur"/>
      <feMerge>
        <feMergeNode in="blur"/>
        <feMergeNode in="blur"/>
        <feMergeNode in="SourceGraphic"/>
      </feMerge>
    </filter>
  </defs>
  <g filter="url(#glow)">
    <rect x="8" y="8" width="10" height="10" rx="1" fill="#bf00ff"/>
    <rect x="8" y="20" width="10" height="10" rx="1" fill="#bf00ff"/>
    <rect x="8" y="32" width="10" height="10" rx="1" fill="#bf00ff"/>
    <rect x="32" y="32" width="10" height="10" rx="1" fill="#bf00ff"/>
    <rect x="44" y="32" width="10" height="10" rx="1" fill="#bf00ff"/>
    <rect x="8" y="44" width="10" height="10" rx="1" fill="#bf00ff"/>
    <rect x="20" y="44" width="10" height="10" rx="1" fill="#bf00ff"/>
    <rect x="56" y="44" width="10" height="10" rx="1" fill="#bf00ff"/>
    <rect x="8" y="56" width="10" height="10" rx="1" fill="#bf00ff"/>
    <rect x="56" y="56" width="10" height="10" rx="1" fill="#bf00ff"/>
    <rect x="8" y="68" width="10" height="10" rx="1" fill="#bf00ff"/>
    <rect x="56" y="68" width="10" height="10" rx="1" fill="#bf00ff"/>
    <rect x="8" y="80" width="10" height="10" rx="1" fill="#bf00ff"/>
    <rect x="56" y="80" width="10" height="10" rx="1" fill="#bf00ff"/>
    <rect x="92" y="32" width="10" height="10" rx="1" fill="#bf00ff"/>
    <rect x="140" y="32" width="10" height="10" rx="1" fill="#bf00ff"/>
    <rect x="92" y="44" width="10" height="10" rx="1" fill="#bf00ff"/>
    <rect x="140" y="44" width="10" height="10" rx="1" fill="#bf00ff"/>
    <rect x="104" y="56" width="10" height="10" rx="1" fill="#bf00ff"/>
    <rect x="116" y="56" width="10" height="10" rx="1" fill="#bf00ff"/>
    <rect x="128" y="56" width="10" height="10" rx="1" fill="#bf00ff"/>
    <rect x="128" y="68" width="10" height="10" rx="1" fill="#bf00ff"/>
    <rect x="92" y="80" width="10" height="10" rx="1" fill="#bf00ff"/>
    <rect x="104" y="80" width="10" height="10" rx="1" fill="#bf00ff"/>
    <rect x="116" y="80" width="10" height="10" rx="1" fill="#bf00ff"/>
    <rect x="176" y="32" width="10" height="10" rx="1" fill="#bf00ff"/>
    <rect x="188" y="32" width="10" height="10" rx="1" fill="#bf00ff"/>
    <rect x="200" y="32" width="10" height="10" rx="1" fill="#bf00ff"/>
    <rect x="212" y="32" width="10" height="10" rx="1" fill="#bf00ff"/>
    <rect x="176" y="44" width="10" height="10" rx="1" fill="#bf00ff"/>
    <rect x="224" y="44" width="10" height="10" rx="1" fill="#bf00ff"/>
    <rect x="176" y="56" width="10" height="10" rx="1" fill="#bf00ff"/>
    <rect x="188" y="56" width="10" height="10" rx="1" fill="#bf00ff"/>
    <rect x="200" y="56" width="10" height="10" rx="1" fill="#bf00ff"/>
    <rect x="212" y="56" width="10" height="10" rx="1" fill="#bf00ff"/>
    <rect x="176" y="68" width="10" height="10" rx="1" fill="#bf00ff"/>
    <rect x="176" y="80" width="10" height="10" rx="1" fill="#bf00ff"/>
    <rect x="260" y="32" width="10" height="10" rx="1" fill="#bf00ff"/>
    <rect x="284" y="32" width="10" height="10" rx="1" fill="#bf00ff"/>
    <rect x="296" y="32" width="10" height="10" rx="1" fill="#bf00ff"/>
    <rect x="260" y="44" width="10" height="10" rx="1" fill="#bf00ff"/>
    <rect x="272" y="44" width="10" height="10" rx="1" fill="#bf00ff"/>
    <rect x="308" y="44" width="10" height="10" rx="1" fill="#bf00ff"/>
    <rect x="260" y="56" width="10" height="10" rx="1" fill="#bf00ff"/>
    <rect x="260" y="68" width="10" height="10" rx="1" fill="#bf00ff"/>
    <rect x="260" y="80" width="10" height="10" rx="1" fill="#bf00ff"/>
    <rect x="344" y="8" width="10" height="10" rx="1" fill="#bf00ff"/>
    <rect x="344" y="20" width="10" height="10" rx="1" fill="#bf00ff"/>
    <rect x="344" y="32" width="10" height="10" rx="1" fill="#bf00ff"/>
    <rect x="380" y="32" width="10" height="10" rx="1" fill="#bf00ff"/>
    <rect x="344" y="44" width="10" height="10" rx="1" fill="#bf00ff"/>
    <rect x="368" y="44" width="10" height="10" rx="1" fill="#bf00ff"/>
    <rect x="344" y="56" width="10" height="10" rx="1" fill="#bf00ff"/>
    <rect x="356" y="56" width="10" height="10" rx="1" fill="#bf00ff"/>
    <rect x="344" y="68" width="10" height="10" rx="1" fill="#bf00ff"/>
    <rect x="368" y="68" width="10" height="10" rx="1" fill="#bf00ff"/>
    <rect x="344" y="80" width="10" height="10" rx="1" fill="#bf00ff"/>
    <rect x="380" y="80" width="10" height="10" rx="1" fill="#bf00ff"/>
    <rect x="428" y="20" width="10" height="10" rx="1" fill="#bf00ff"/>
    <rect x="428" y="44" width="10" height="10" rx="1" fill="#bf00ff"/>
    <rect x="428" y="56" width="10" height="10" rx="1" fill="#bf00ff"/>
    <rect x="428" y="68" width="10" height="10" rx="1" fill="#bf00ff"/>
    <rect x="428" y="80" width="10" height="10" rx="1" fill="#bf00ff"/>
    <rect x="476" y="20" width="10" height="10" rx="1" fill="#bf00ff"/>
    <rect x="464" y="32" width="10" height="10" rx="1" fill="#bf00ff"/>
    <rect x="476" y="32" width="10" height="10" rx="1" fill="#bf00ff"/>
    <rect x="488" y="32" width="10" height="10" rx="1" fill="#bf00ff"/>
    <rect x="476" y="44" width="10" height="10" rx="1" fill="#bf00ff"/>
    <rect x="476" y="56" width="10" height="10" rx="1" fill="#bf00ff"/>
    <rect x="476" y="68" width="10" height="10" rx="1" fill="#bf00ff"/>
    <rect x="488" y="80" width="10" height="10" rx="1" fill="#bf00ff"/>
    <rect x="500" y="80" width="10" height="10" rx="1" fill="#bf00ff"/>
  </g>
  <rect x="0" y="18" width="520" height="2" fill="black" opacity="0.15"/>
  <rect x="0" y="30" width="520" height="2" fill="black" opacity="0.15"/>
  <rect x="0" y="42" width="520" height="2" fill="black" opacity="0.15"/>
  <rect x="0" y="54" width="520" height="2" fill="black" opacity="0.15"/>
  <rect x="0" y="66" width="520" height="2" fill="black" opacity="0.15"/>
  <rect x="0" y="78" width="520" height="2" fill="black" opacity="0.15"/>
  <rect x="0" y="90" width="520" height="2" fill="black" opacity="0.15"/>
</svg>
