<svg xmlns="http://www.w3.org/2000/svg" viewBox="0 0 220 55" fill="#7aa2f7">
  <!-- h -->
  <rect x="0" y="0" width="6" height="50"/>
  <rect x="6" y="18" width="12" height="6"/>
  <rect x="18" y="18" width="6" height="32"/>
  <!-- y -->
  <rect x="31" y="14" width="6" height="18"/>
  <rect x="49" y="14" width="6" height="18"/>
  <rect x="37" y="26" width="12" height="6"/>
  <rect x="43" y="32" width="6" height="12"/>
  <rect x="31" y="44" width="12" height="6"/>
  <!-- p -->
  <rect x="62" y="14" width="6" height="36"/>
  <rect x="68" y="14" width="12" height="6"/>
  <rect x="80" y="14" width="6" height="18"/>
  <rect x="68" y="26" width="12" height="6"/>
  <!-- r -->
  <rect x="93" y="14" width="6" height="36"/>
  <rect x="99" y="14" width="12" height="6"/>
  <rect x="111" y="14" width="6" height="10"/>
  <!-- k -->
  <rect x="125" y="0" width="6" height="50"/>
  <rect x="131" y="26" width="6" height="6"/>
  <rect x="137" y="20" width="6" height="6"/>
  <rect x="143" y="14" width="6" height="6"/>
  <rect x="137" y="32" width="6" height="6"/>
  <rect x="143" y="38" width="6" height="12"/>
  <!-- i -->
  <rect x="157" y="3" width="6" height="6"/>
  <rect x="157" y="14" width="6" height="36"/>
  <!-- t -->
  <rect x="176" y="7" width="6" height="7"/>
  <rect x="170" y="14" width="18" height="6"/>
  <rect x="176" y="20" width="6" height="24"/>
  <rect x="182" y="44" width="6" height="6"/>
</svg>
